# xmcd
#
# Track frame offsets:
#	150
#	22022
#	32501
#	50034
#	56064
#	73384
#	81479
#	98263
#	118481
#	130584
#	143791
#	149994
#
# Disc length: 2232 seconds
#
# Revision: 1
# Processed by: cddbd v1.5PL3 Copyright (c) Steve Scherf et al.
# Submitted via: CDex 1.50Beta5
#
DISCID=bc08b60c
DTITLE=大西ユカリと新世界 - 大西ユカリと新世界
DYEAR=1900
DGENRE=Pop
TTITLE0=雨の日のあやまち
TTITLE1=キィハントー
TTITLE2=恋はバツグン
TTITLE3=新世界のテーマ
TTITLE4=新ミッチー音頭
TTITLE5=ザ キングストンバッドガール
TTITLE6=恋の味
TTITLE7=滾り
TTITLE8=恋のゴーカート
TTITLE9=ナンキバウンド ・ユカリの夏休み・
TTITLE10=Z最終便
TTITLE11=北国行きで
EXTD=
EXTT0=
EXTT1=
EXTT2=
EXTT3=
EXTT4=
EXTT5=
EXTT6=
EXTT7=
EXTT8=
EXTT9=
EXTT10=
EXTT11=
PLAYORDER=
